<svg width="16" height="10" viewBox="0 0 16 10" fill="none" xmlns="http://www.w3.org/2000/svg">
<path d="M15.3425 4.84812C15.3212 4.79938 14.8013 3.64625 13.64 2.485C12.5625 1.40875 10.7113 0.125 8 0.125C5.28875 0.125 3.4375 1.40875 2.36 2.485C1.19875 3.64625 0.67875 4.7975 0.6575 4.84812C0.636133 4.89613 0.625092 4.94808 0.625092 5.00062C0.625092 5.05317 0.636133 5.10512 0.6575 5.15312C0.67875 5.20125 1.19875 6.35437 2.36 7.51562C3.4375 8.59188 5.28875 9.875 8 9.875C10.7113 9.875 12.5625 8.59188 13.64 7.51562C14.8013 6.35437 15.3212 5.20312 15.3425 5.15312C15.3639 5.10512 15.3749 5.05317 15.3749 5.00062C15.3749 4.94808 15.3639 4.89613 15.3425 4.84812ZM8 9.125C6.03875 9.125 4.32625 8.41125 2.90938 7.00438C2.31542 6.41409 1.81281 5.73854 1.41813 5C1.8127 4.26158 2.31532 3.58622 2.90938 2.99625C4.32625 1.58875 6.03875 0.875 8 0.875C9.96125 0.875 11.6737 1.58875 13.0906 2.99625C13.6847 3.58622 14.1873 4.26158 14.5819 5C14.1838 5.76312 12.1875 9.125 8 9.125ZM8 2.125C7.43138 2.125 6.87553 2.29362 6.40274 2.60952C5.92994 2.92543 5.56145 3.37445 5.34385 3.89979C5.12625 4.42512 5.06931 5.00319 5.18024 5.56088C5.29118 6.11858 5.56499 6.63086 5.96707 7.03293C6.36914 7.43501 6.88142 7.70883 7.43912 7.81976C7.99681 7.93069 8.57488 7.87376 9.10021 7.65615C9.62555 7.43855 10.0746 7.07006 10.3905 6.59726C10.7064 6.12447 10.875 5.56862 10.875 5C10.874 4.23781 10.5708 3.50712 10.0318 2.96816C9.49288 2.42921 8.76219 2.12599 8 2.125ZM8 7.125C7.57972 7.125 7.16887 7.00037 6.81941 6.76687C6.46996 6.53338 6.19759 6.20149 6.03676 5.8132C5.87592 5.42491 5.83384 4.99764 5.91583 4.58543C5.99783 4.17322 6.20021 3.79458 6.4974 3.4974C6.79458 3.20021 7.17322 2.99782 7.58543 2.91583C7.99764 2.83384 8.42491 2.87592 8.8132 3.03676C9.2015 3.19759 9.53338 3.46996 9.76687 3.81941C10.0004 4.16887 10.125 4.57971 10.125 5C10.125 5.56359 9.90112 6.10409 9.5026 6.5026C9.10409 6.90112 8.56359 7.125 8 7.125Z" fill="white"/>
</svg>
