<svg width="69" height="34" viewBox="0 0 69 34" fill="none" xmlns="http://www.w3.org/2000/svg">
<g clip-path="url(#clip0_25_306)">
<path d="M0.857971 25.0715L7.8382 14.21H1.68487C1.63272 13.8972 1.61038 13.5545 1.61038 13.1746C1.61038 12.8095 1.63272 12.4743 1.68487 12.1689H11.6449L11.7716 12.5041L4.73918 23.3879H11.332C11.3842 23.7306 11.4065 24.0882 11.4065 24.4457C11.4065 24.7884 11.3842 25.1162 11.332 25.4291H0.984613L0.857971 25.0715Z" fill="#5C5C5C"/>
<path d="M21.0016 16.6909C21.0016 15.6703 20.7409 14.97 20.2268 14.5678C19.7128 14.1729 18.9604 13.9718 17.9771 13.9718C17.3737 13.9718 16.8075 14.0165 16.286 14.1133C15.7571 14.2102 15.2505 14.3294 14.744 14.4858C14.4162 13.9197 14.2523 13.2343 14.2523 12.4446C14.8408 12.2584 15.4815 12.1094 16.1892 12.0051C16.8969 11.9008 17.5748 11.8487 18.2304 11.8487C19.9512 11.8487 21.2623 12.2435 22.1637 13.0257C23.0577 13.8079 23.5121 15.0669 23.5121 16.7877V25.0865C22.9087 25.2206 22.1786 25.3696 21.3145 25.5112C20.4503 25.6601 19.5713 25.7272 18.6773 25.7272C17.8355 25.7272 17.0682 25.6527 16.3903 25.4963C15.7124 25.3398 15.1314 25.094 14.6546 24.7439C14.1778 24.4012 13.8128 23.9617 13.552 23.4253C13.2913 22.8889 13.1647 22.2408 13.1647 21.4884C13.1647 20.7509 13.3137 20.0953 13.6191 19.5366C13.9171 18.9779 14.3268 18.5086 14.8483 18.1436C15.3623 17.7711 15.9583 17.4954 16.6362 17.3167C17.3066 17.1379 18.0143 17.041 18.7593 17.041C19.3105 17.041 19.765 17.0559 20.1151 17.0783C20.4652 17.1006 20.7632 17.1379 21.009 17.1677V16.6909H21.0016ZM21.0016 19.2014C20.7409 19.1641 20.4131 19.1343 20.0183 19.0971C19.6234 19.0598 19.2882 19.045 19.0126 19.045C17.9398 19.045 17.1278 19.2461 16.5691 19.6409C16.0104 20.0357 15.7273 20.6392 15.7273 21.4512C15.7273 21.9652 15.8242 22.3749 16.0104 22.6654C16.1966 22.956 16.435 23.1794 16.7181 23.3359C17.0012 23.4923 17.3141 23.5892 17.6642 23.619C18.0069 23.6562 18.3347 23.6711 18.6475 23.6711C19.0424 23.6711 19.4521 23.6488 19.8767 23.6041C20.3013 23.5594 20.6738 23.4998 21.0016 23.4104V19.2014Z" fill="#5C5C5C"/>
<path d="M26.3056 12.1694C26.477 12.1322 26.6557 12.1098 26.8345 12.0949C27.0133 12.08 27.1996 12.0726 27.3932 12.0726C27.5646 12.0726 27.7434 12.08 27.9371 12.0949C28.1233 12.1098 28.3095 12.1396 28.4809 12.1694C28.4958 12.2067 28.5181 12.311 28.5479 12.4898C28.5703 12.6686 28.6001 12.8622 28.6224 13.0708C28.6448 13.2794 28.6746 13.4731 28.6969 13.6668C28.7193 13.8605 28.7342 13.9797 28.7342 14.0318C28.9055 13.7562 29.1141 13.488 29.3525 13.2273C29.5909 12.9665 29.8814 12.7356 30.2166 12.527C30.5519 12.3184 30.9318 12.1545 31.3564 12.0353C31.781 11.9161 32.2503 11.8566 32.7644 11.8566C33.5391 11.8566 34.2617 11.9832 34.9247 12.2439C35.5877 12.5047 36.1539 12.8995 36.6307 13.4433C37.1075 13.9871 37.4725 14.6799 37.7407 15.5143C38.0089 16.3486 38.1429 17.3394 38.1429 18.4792C38.1429 20.7588 37.5246 22.5392 36.2955 23.8205C35.0588 25.1019 33.3156 25.75 31.0584 25.75C30.6785 25.75 30.2911 25.7276 29.8963 25.6755C29.5015 25.6233 29.1513 25.5563 28.8608 25.4669V31.5457C28.6522 31.583 28.4362 31.6053 28.1978 31.6202C27.9669 31.6351 27.7508 31.6426 27.5646 31.6426C27.3783 31.6426 27.1623 31.6351 26.9314 31.6202C26.7004 31.6053 26.4844 31.5755 26.2982 31.5457V12.1694H26.3056ZM28.8683 23.2618C29.196 23.381 29.5313 23.4704 29.8739 23.5225C30.2166 23.5747 30.6636 23.597 31.2223 23.597C31.8406 23.597 32.4142 23.5002 32.9283 23.2991C33.4423 23.0979 33.8893 22.7925 34.2617 22.3828C34.6342 21.9656 34.9247 21.4441 35.1408 20.8184C35.3568 20.1926 35.4611 19.4402 35.4611 18.5835C35.4611 17.2053 35.2078 16.1102 34.7013 15.2982C34.1947 14.4862 33.3603 14.084 32.2057 14.084C31.7736 14.084 31.3639 14.1585 30.9616 14.3149C30.5668 14.4713 30.2092 14.7023 29.9037 15.0152C29.5909 15.328 29.345 15.7154 29.1513 16.1922C28.9577 16.669 28.8683 17.2277 28.8683 17.8832V23.2618Z" fill="#5C5C5C"/>
<path d="M41.3313 14.1802H39.6477C39.6105 14.0387 39.5881 13.8823 39.5732 13.7035C39.5583 13.5247 39.5509 13.3459 39.5509 13.1746C39.5509 13.0032 39.5583 12.8244 39.5732 12.6456C39.5881 12.4669 39.6179 12.303 39.6477 12.1689H43.8418V25.4365C43.6556 25.4738 43.4396 25.4961 43.2086 25.511C42.9777 25.5259 42.7616 25.5334 42.5754 25.5334C42.4041 25.5334 42.2029 25.5259 41.9645 25.511C41.7336 25.4961 41.5176 25.4663 41.3313 25.4365V14.1802Z" fill="#5C5C5C"/>
<path d="M49.347 19.4325C49.3843 20.8777 49.7568 21.943 50.4719 22.6135C51.1871 23.2839 52.2449 23.6192 53.638 23.6192C54.8597 23.6192 56.0293 23.4031 57.1318 22.971C57.2734 23.2318 57.3851 23.5447 57.467 23.9171C57.5564 24.2896 57.6011 24.6546 57.6235 25.0197C57.0573 25.2581 56.4316 25.4443 55.7462 25.5635C55.0683 25.6827 54.3084 25.7423 53.4815 25.7423C52.2747 25.7423 51.2392 25.5709 50.3751 25.2357C49.5109 24.9005 48.8032 24.4237 48.2445 23.8129C47.6858 23.202 47.2761 22.4794 47.0153 21.6376C46.7546 20.8032 46.628 19.8869 46.628 18.8812C46.628 17.8979 46.7546 16.9816 47.0004 16.1249C47.2463 15.2682 47.6336 14.5307 48.1477 13.8975C48.6617 13.2717 49.3172 12.7652 50.0994 12.4001C50.8816 12.0277 51.8128 11.8414 52.8781 11.8414C53.7944 11.8414 54.5915 11.9979 55.2843 12.3107C55.9771 12.6236 56.5507 13.0482 57.0201 13.5921C57.4819 14.1359 57.8395 14.784 58.0779 15.5289C58.3163 16.2814 58.4429 17.0934 58.4429 17.9724C58.4429 18.2108 58.4355 18.4715 58.4131 18.7323C58.3982 19.0004 58.3759 19.2314 58.361 19.4176H49.347V19.4325ZM55.9175 17.518C55.9175 17.0338 55.8505 16.5719 55.7238 16.1324C55.5972 15.6928 55.4035 15.3129 55.1577 14.9851C54.9044 14.6574 54.5915 14.3966 54.2041 14.1955C53.8168 13.9943 53.3549 13.8975 52.8185 13.8975C51.7681 13.8975 50.9636 14.2178 50.3974 14.851C49.8387 15.4917 49.496 16.3782 49.3768 17.518H55.9175Z" fill="#5C5C5C"/>
<path d="M61.2738 12.1689C61.46 12.1316 61.6463 12.1093 61.8176 12.0944C61.989 12.0795 62.1678 12.072 62.3614 12.072C62.5477 12.072 62.7414 12.0795 62.9276 12.0944C63.1138 12.1093 63.2926 12.1391 63.4416 12.1689C63.4938 12.4296 63.5459 12.7648 63.5981 13.1895C63.6502 13.6141 63.6726 13.9717 63.6726 14.2622C64.0376 13.6737 64.5144 13.1671 65.1103 12.735C65.7063 12.303 66.4661 12.0869 67.3973 12.0869C67.5389 12.0869 67.6804 12.0944 67.822 12.1018C67.9709 12.1093 68.0901 12.1242 68.1944 12.1391C68.2317 12.2955 68.254 12.4594 68.2689 12.6307C68.2838 12.8021 68.2913 12.9809 68.2913 13.1746C68.2913 13.3831 68.2764 13.5992 68.254 13.8227C68.2317 14.0462 68.1944 14.2622 68.1646 14.4708C68.0231 14.4335 67.8816 14.4186 67.74 14.4186C67.591 14.4186 67.4793 14.4186 67.3899 14.4186C66.928 14.4186 66.481 14.4857 66.0564 14.6123C65.6318 14.739 65.2519 14.9699 64.9166 15.2977C64.5814 15.6255 64.3132 16.0724 64.1121 16.6461C63.9109 17.2122 63.8141 17.9497 63.8141 18.8437V25.4365C63.6279 25.4738 63.4118 25.4961 63.1809 25.511C62.95 25.5259 62.7339 25.5334 62.5477 25.5334C62.3614 25.5334 62.1454 25.5259 61.9145 25.511C61.6835 25.4961 61.46 25.4663 61.2515 25.4365V12.1689H61.2738Z" fill="#5C5C5C"/>
<path d="M46.2777 4.36204H43.7747L45.5477 2.58904C45.4061 2.39535 45.2497 2.20911 45.0858 2.03778C44.9145 1.86644 44.7357 1.71 44.5345 1.5759L42.7615 3.3489V0.845847C42.5306 0.8086 42.2922 0.786251 42.0464 0.786251H42.0389C41.7931 0.786251 41.5547 0.8086 41.3238 0.845847V3.3489L39.5508 1.5759C39.3571 1.71744 39.1709 1.87389 38.9995 2.03778C38.8282 2.20911 38.6792 2.3879 38.5377 2.58904L40.3181 4.36204H37.815C37.815 4.36204 37.7554 4.83136 37.7554 5.07719C37.7554 5.32303 37.7778 5.56141 37.815 5.79235H40.3181L38.5451 7.56534C38.8207 7.95272 39.1634 8.2954 39.5582 8.57848L41.3312 6.80549V9.30854C41.5622 9.34578 41.8006 9.36813 42.0464 9.36813H42.0538C42.2997 9.36813 42.5381 9.34578 42.769 9.30854V6.80549L44.542 8.57848C44.7357 8.43694 44.9219 8.2805 45.0933 8.11661C45.2646 7.94527 45.421 7.76648 45.5551 7.56534L43.7821 5.79235H46.2852C46.3224 5.56141 46.3448 5.32303 46.3448 5.07719V5.06974C46.3373 4.83136 46.3224 4.59297 46.2777 4.36204ZM43.1191 5.08464C43.1191 5.40497 43.0595 5.7104 42.9552 5.99349C42.6721 6.09778 42.3667 6.15738 42.0464 6.15738C41.7261 6.15738 41.4206 6.09778 41.1375 5.99349C41.0332 5.7104 40.9737 5.40497 40.9737 5.08464V5.07719C40.9737 4.75686 41.0332 4.45143 41.1375 4.16835C41.4206 4.06405 41.7261 4.00446 42.0464 4.00446C42.3667 4.00446 42.6721 4.06405 42.9552 4.16835C43.0595 4.45143 43.1191 4.75686 43.1191 5.08464Z" fill="#5C5C5C"/>
</g>
<defs>
<clipPath id="clip0_25_306">
<rect width="68" height="34" fill="white" transform="translate(0.857117)"/>
</clipPath>
</defs>
</svg>
