<svg width="93" height="34" viewBox="0 0 93 34" fill="none" xmlns="http://www.w3.org/2000/svg">
<g clip-path="url(#clip0_25_334)">
<path d="M32.5708 24.6319V14.3221H32.7544L40.259 24.6319H42.6206V9.49177H39.9966V19.7756H39.8129L32.3084 9.49177H29.9468V24.6319H32.5708ZM50.0464 24.8656C53.51 24.8656 55.6355 22.6323 55.6355 18.8927C55.6355 15.1791 53.51 12.9197 50.0464 12.9197C46.609 12.9197 44.4573 15.1791 44.4573 18.8927C44.4836 22.6323 46.5828 24.8656 50.0464 24.8656ZM50.0464 22.6842C48.2096 22.6842 47.16 21.3078 47.16 18.8927C47.16 16.5035 48.2096 15.1011 50.0464 15.1011C51.8832 15.1011 52.9328 16.5035 52.9328 18.8927C52.9328 21.3078 51.8832 22.6842 50.0464 22.6842ZM58.0233 10.3488V13.2314H56.1865V15.3089H58.0233V21.5675C58.0233 23.8009 59.0729 24.6838 61.7493 24.6838C62.2479 24.6838 62.7464 24.6319 63.14 24.554V22.5284C62.8251 22.5544 62.6152 22.5803 62.2479 22.5803C61.1458 22.5803 60.6473 22.0869 60.6473 20.9443V15.3089H63.14V13.2314H60.6473V10.3488H58.0233ZM64.7144 24.6319H67.3384V13.1534H64.7144V24.6319ZM66.0264 11.2577C66.8923 11.2577 67.6008 10.5565 67.6008 9.69952C67.6008 8.81657 66.8923 8.1154 66.0264 8.1154C65.1605 8.1154 64.452 8.81657 64.452 9.69952C64.452 10.5565 65.1605 11.2577 66.0264 11.2577ZM74.528 24.8656C77.9917 24.8656 80.1171 22.6323 80.1171 18.8927C80.1171 15.1791 77.9917 12.9197 74.528 12.9197C71.0906 12.9197 68.939 15.1791 68.939 18.8927C68.939 22.6323 71.0382 24.8656 74.528 24.8656ZM74.528 22.6842C72.6913 22.6842 71.6417 21.3078 71.6417 18.8927C71.6417 16.5035 72.6913 15.1011 74.528 15.1011C76.3386 15.1011 77.4144 16.5035 77.4144 18.8927C77.3882 21.3078 76.3386 22.6842 74.528 22.6842ZM81.6652 24.6319H84.2892V17.9578C84.2892 16.2698 85.2863 15.205 86.8345 15.205C88.4351 15.205 89.1698 16.088 89.1698 17.8279V24.6319H91.7938V17.2047C91.7938 14.4519 90.3768 12.9197 87.8053 12.9197C86.0735 12.9197 84.919 13.6988 84.3679 14.9973H84.1843V13.1534H81.639C81.6653 13.1534 81.6652 24.6319 81.6652 24.6319Z" fill="#5C5C5C"/>
<path fill-rule="evenodd" clip-rule="evenodd" d="M4.7874 8.52274C5.55111 9.13884 5.82735 9.0902 7.25727 8.99292L20.7278 8.18226C21.0203 8.18226 20.7766 7.89041 20.6791 7.85799L18.4367 6.25287C18.0142 5.9286 17.4292 5.53948 16.3406 5.63676L3.30873 6.59335C2.8375 6.64199 2.74001 6.88519 2.935 7.06353L4.7874 8.52274ZM5.59986 11.6519V25.79C5.59986 26.552 5.97359 26.8276 6.8348 26.779L21.6378 25.9197C22.499 25.871 22.5965 25.3522 22.5965 24.7361V10.6953C22.5965 10.0792 22.3527 9.73874 21.8328 9.78738L6.36357 10.6953C5.79485 10.744 5.59986 11.0358 5.59986 11.6519ZM20.2078 12.4139C20.3053 12.8355 20.2078 13.2732 19.7854 13.3219L19.0704 13.4678V23.9092C18.4529 24.2335 17.8842 24.428 17.3967 24.428C16.633 24.428 16.438 24.1848 15.8693 23.4715L11.2058 16.1592V23.2283L12.6845 23.5525C12.6845 23.5525 12.6845 24.4118 11.4983 24.4118L8.21597 24.6064C8.11848 24.4118 8.21597 23.9416 8.54096 23.8444L9.40216 23.6012V14.2623L8.21597 14.165C8.11848 13.7434 8.36222 13.1273 9.02843 13.0787L12.5545 12.8355L17.413 20.2288V13.6948L16.1781 13.5489C16.0806 13.0301 16.4705 12.6409 16.9418 12.5923L20.2078 12.4139ZM2.22004 5.29628L15.7881 4.30726C17.4455 4.16134 17.8842 4.25862 18.9242 5.02065L23.2464 8.05255C23.9614 8.57138 24.2051 8.7173 24.2051 9.28476V25.9359C24.2051 26.9735 23.8314 27.5896 22.499 27.6869L6.75355 28.6435C5.7461 28.6922 5.27488 28.5462 4.7549 27.8815L1.55382 23.7471C0.985101 22.9851 0.741364 22.4176 0.741364 21.7528V6.95004C0.741364 6.09073 1.13134 5.39356 2.22004 5.29628Z" fill="#5C5C5C"/>
</g>
<defs>
<clipPath id="clip0_25_334">
<rect width="91.375" height="34" fill="white" transform="translate(0.741119)"/>
</clipPath>
</defs>
</svg>
