<svg width="101" height="34" viewBox="0 0 101 34" fill="none" xmlns="http://www.w3.org/2000/svg">
<g clip-path="url(#clip0_25_310)">
<path d="M15.9169 2.18078C7.70172 2.18078 1.04166 8.84066 1.04166 17.0559C1.04166 25.2714 7.70172 31.9308 15.9169 31.9308C24.133 31.9308 30.7924 25.2714 30.7924 17.0559C30.7924 8.8412 24.133 2.18149 15.9168 2.18149L15.9169 2.18078ZM22.7386 23.6349C22.4722 24.0719 21.9002 24.2105 21.4633 23.9422C17.9707 21.8089 13.574 21.3257 8.39608 22.5088C7.89711 22.6224 7.39975 22.3098 7.28607 21.8107C7.17185 21.3115 7.48324 20.8142 7.98344 20.7005C13.6498 19.4059 18.5103 19.9633 22.4313 22.3595C22.8683 22.6278 23.0069 23.198 22.7386 23.6349ZM24.5593 19.5846C24.2236 20.1303 23.5096 20.3026 22.9642 19.9669C18.9658 17.5092 12.8708 16.7974 8.14135 18.233C7.528 18.4183 6.88018 18.0726 6.69402 17.4603C6.50929 16.847 6.85514 16.2004 7.46743 16.0139C12.8697 14.3747 19.5857 15.1687 24.1774 17.9904C24.7228 18.3261 24.8951 19.0402 24.5593 19.5848V19.5846ZM24.7157 15.367C19.9214 12.5194 12.0116 12.2576 7.43421 13.6468C6.69918 13.8697 5.92187 13.4548 5.69912 12.7197C5.47637 11.9844 5.89096 11.2076 6.62652 10.9841C11.881 9.38901 20.616 9.69719 26.1356 12.9739C26.7982 13.3663 27.0149 14.2202 26.6223 14.8804C26.2316 15.5416 25.3754 15.7595 24.7164 15.367H24.7157ZM41.5124 15.9126C38.9438 15.3002 38.4873 14.8703 38.4873 13.9671C38.4873 13.1137 39.2902 12.5395 40.4857 12.5395C41.6438 12.5395 42.7913 12.9755 43.9956 13.8733C44.0312 13.9005 44.0773 13.9113 44.1218 13.9042C44.1679 13.8974 44.207 13.8727 44.2337 13.8356L45.4877 12.0678C45.5392 11.995 45.525 11.8947 45.4558 11.8391C44.0223 10.6893 42.4094 10.1303 40.523 10.1303C37.7502 10.1303 35.8122 11.7945 35.8122 14.1756C35.8122 16.729 37.4837 17.6332 40.372 18.3311C42.8286 18.8972 43.2443 19.3715 43.2443 20.2191C43.2443 21.1588 42.4058 21.7432 41.0559 21.7432C39.5567 21.7432 38.3328 21.2369 36.965 20.0539C36.9313 20.0237 36.8851 20.0113 36.8425 20.0131C36.7963 20.0166 36.7554 20.0379 36.727 20.0717L35.3202 21.7449C35.2616 21.816 35.2687 21.919 35.3362 21.9794C36.9277 23.4005 38.8852 24.1501 40.999 24.1501C43.9868 24.1501 45.9176 22.5176 45.9176 19.99C45.9229 17.8572 44.6458 16.6759 41.5177 15.915L41.5124 15.9126ZM52.6782 13.3796C51.3833 13.3796 50.321 13.8898 49.4436 14.9351V13.7585C49.4436 13.6656 49.3689 13.59 49.2766 13.59H46.9763C46.8839 13.59 46.8093 13.6656 46.8093 13.7585V26.8323C46.8093 26.9246 46.8839 27.001 46.9763 27.001H49.2766C49.3689 27.001 49.4436 26.9246 49.4436 26.8323V22.7059C50.321 23.6882 51.3833 24.1696 52.6782 24.1696C55.0851 24.1696 57.5222 22.3169 57.5222 18.7752C57.5257 15.2327 55.0886 13.3795 52.68 13.3795L52.6782 13.3796ZM54.8471 18.7752C54.8471 20.5779 53.7369 21.8373 52.1453 21.8373C50.5733 21.8373 49.3867 20.5211 49.3867 18.7752C49.3867 17.029 50.5733 15.7132 52.1453 15.7132C53.7102 15.713 54.8471 17.0005 54.8471 18.775V18.7752ZM63.7659 13.3796C60.6662 13.3796 58.238 15.7663 58.238 18.8137C58.238 21.8284 60.6502 24.1891 63.7286 24.1891C66.8389 24.1891 69.2742 21.8107 69.2742 18.7752C69.2742 15.7499 66.8549 13.38 63.7659 13.38V13.3796ZM63.7659 21.8551C62.1175 21.8551 60.8741 20.53 60.8741 18.7743C60.8741 17.0106 62.0748 15.7308 63.7286 15.7308C65.3876 15.7308 66.6382 17.0553 66.6382 18.8128C66.6382 20.5761 65.4303 21.8551 63.7659 21.8551ZM75.8927 13.59H73.3615V11.0026C73.3615 10.9099 73.2868 10.8342 73.1945 10.8342H70.8942C70.8018 10.8342 70.7254 10.9099 70.7254 11.0026V13.59H69.6206C69.5282 13.59 69.4536 13.6656 69.4536 13.7585V15.735C69.4536 15.8277 69.5282 15.9036 69.6206 15.9036H70.7254V21.0184C70.7254 23.0843 71.7539 24.1323 73.7842 24.1323C74.6084 24.1323 75.2923 23.9618 75.9371 23.5958C75.9904 23.5674 76.0223 23.5106 76.0223 23.4502V21.5673C76.0223 21.5105 75.9922 21.4554 75.9424 21.4252C75.8927 21.3932 75.8305 21.3915 75.779 21.4181C75.3367 21.6401 74.9086 21.7432 74.429 21.7432C73.6918 21.7432 73.3615 21.4074 73.3615 20.6579V15.9045H75.8927C75.985 15.9045 76.0596 15.8288 76.0596 15.7359V13.7596C76.0632 13.6667 75.9886 13.591 75.8945 13.591L75.8927 13.59ZM84.7102 13.6001V13.2823C84.7102 12.3474 85.0691 11.9305 85.8719 11.9305C86.3515 11.9305 86.737 12.0257 87.1686 12.1696C87.2219 12.1863 87.277 12.178 87.3196 12.1462C87.364 12.1144 87.3889 12.0634 87.3889 12.0094V10.0715C87.3889 9.99739 87.3427 9.93184 87.2699 9.91C86.8152 9.77446 86.2325 9.63538 85.3586 9.63538C83.2359 9.63538 82.1115 10.8315 82.1115 13.0933V13.58H81.0066C80.9143 13.58 80.8379 13.6557 80.8379 13.7484V15.735C80.8379 15.8277 80.9143 15.9036 81.0066 15.9036H82.1115V23.7912C82.1115 23.8854 82.1879 23.96 82.2803 23.96H84.5788C84.6729 23.96 84.7475 23.8854 84.7475 23.7912V15.9041H86.8951L90.1848 23.7912C89.8118 24.619 89.4441 24.7842 88.9432 24.7842C88.5382 24.7842 88.1101 24.6634 87.6749 24.4236C87.634 24.4023 87.5843 24.3987 87.5417 24.4112C87.4973 24.4272 87.46 24.4591 87.4422 24.5018L86.6624 26.2123C86.6251 26.2941 86.6571 26.3882 86.7352 26.4308C87.5488 26.8713 88.2824 27.0596 89.1901 27.0596C90.8882 27.0596 91.8279 26.2674 92.6539 24.1394L96.6434 13.8303C96.6647 13.7784 96.6576 13.7198 96.6257 13.6738C96.5955 13.6281 96.544 13.6006 96.4889 13.6006H94.0944C94.0216 13.6006 93.9577 13.6463 93.9346 13.7136L91.4815 20.7182L88.7957 13.709C88.7709 13.6438 88.7087 13.6006 88.6394 13.6006H84.7102V13.6001ZM79.598 13.59H77.2977C77.2054 13.59 77.129 13.6656 77.129 13.7585V23.7912C77.129 23.8854 77.2054 23.96 77.2977 23.96H79.598C79.6904 23.96 79.7668 23.8854 79.7668 23.7912V13.7592C79.7668 13.6663 79.6922 13.5907 79.598 13.5907V13.59ZM78.4612 9.02149C77.55 9.02149 76.811 9.75901 76.811 10.6701C76.811 11.5817 77.55 12.3201 78.4612 12.3201C79.3725 12.3201 80.1096 11.5817 80.1096 10.6701C80.1096 9.75919 79.3707 9.02149 78.4612 9.02149ZM98.608 16.8159C97.6986 16.8159 96.9898 16.0849 96.9898 15.1973C96.9898 14.3097 97.7074 13.5704 98.6169 13.5704C99.5264 13.5704 100.235 14.3012 100.235 15.1881C100.235 16.0757 99.5175 16.8159 98.608 16.8159ZM98.6169 13.7313C97.7874 13.7313 97.1603 14.3904 97.1603 15.1973C97.1603 16.0039 97.7838 16.6541 98.608 16.6541C99.4376 16.6541 100.065 15.9956 100.065 15.1881C100.065 14.3815 99.4411 13.7313 98.6169 13.7313ZM98.9757 15.3545L99.434 15.9954H99.0468L98.6347 15.4075H98.2812V15.9954H97.9579V14.2966H98.7146C99.1107 14.2966 99.37 14.4985 99.37 14.8385C99.3718 15.117 99.2102 15.2872 98.9775 15.3545H98.9757ZM98.7022 14.5881H98.2812V15.1254H98.7022C98.9118 15.1254 99.0379 15.0225 99.0379 14.8565C99.0379 14.6817 98.9118 14.5881 98.7022 14.5881Z" fill="#5C5C5C"/>
</g>
<defs>
<clipPath id="clip0_25_310">
<rect width="99.1667" height="34" fill="white" transform="translate(0.988098)"/>
</clipPath>
</defs>
</svg>
