<svg width="63" height="44" viewBox="0 0 63 44" fill="none" xmlns="http://www.w3.org/2000/svg">
<path d="M56.4882 20.2421L49.9482 23.4033C49.8218 23.4644 49.6839 23.4982 49.5436 23.5025L13.2023 24.6123C12.9841 24.6189 12.7698 24.554 12.592 24.4275L6.79115 20.2997C6.20347 19.8815 6.23834 18.9976 6.85713 18.627L30.6702 4.36532C30.9793 4.18015 31.3643 4.17567 31.6777 4.3536L56.5468 18.4721C57.2477 18.8701 57.214 19.8913 56.4882 20.2421Z" fill="#EDEBFF"/>
<rect x="16.3666" y="21.7815" width="30.2779" height="17.4313" fill="#EDEBFF"/>
<path d="M48.5058 37.1002V24.4265C48.5058 22.103 40.95 20.2019 31.5051 20.2019C22.0603 20.2019 14.5045 22.103 14.5045 24.4265V37.1002" stroke="#EDEBFF" stroke-width="4.5" stroke-miterlimit="10" stroke-linecap="round" stroke-linejoin="round"/>
<path d="M48.5063 25.0603L59.718 20.9345C60.5114 20.6425 60.607 19.5589 59.877 19.1325L33.5229 3.74069C32.2765 3.01276 30.7347 3.01276 29.4883 3.74069L3.13423 19.1325C2.40419 19.5589 2.49979 20.6425 3.2932 20.9345L14.5049 25.0603M2.87159 19.5165V31.9058M31.5056 32.5508C22.1174 32.5508 14.5049 34.4413 14.5049 36.7754C14.5049 39.1094 22.1174 40.9999 31.5056 40.9999C40.8937 40.9999 48.5063 39.1094 48.5063 36.7754C48.5063 34.4413 40.8937 32.5508 31.5056 32.5508Z" stroke="#EDEBFF" stroke-width="4.5" stroke-miterlimit="10" stroke-linecap="round" stroke-linejoin="round"/>
<path fill-rule="evenodd" clip-rule="evenodd" d="M28.461 1.824C30.3421 0.725335 32.6693 0.725333 34.5504 1.824L61.0217 17.2843C63.3211 18.6272 63.0094 22.0432 60.5049 22.9478L51.2881 26.2768L49.8115 22.1885L56.6009 19.7362L32.3582 5.5775C31.8315 5.26987 31.1799 5.26987 30.6532 5.5775L6.3847 19.7513L13.1662 22.2388L11.6693 26.3197L5.04511 23.8899V34.0793H0.698328V21.2991C0.0879863 19.9302 0.476812 18.1679 1.9783 17.291L28.461 1.824Z" fill="#EDEBFF"/>
</svg>
