<svg width="70" height="34" viewBox="0 0 70 34" fill="none" xmlns="http://www.w3.org/2000/svg">
<g clip-path="url(#clip0_25_314)">
<path fill-rule="evenodd" clip-rule="evenodd" d="M57.0366 14.5915C57.3017 15.0488 57.3884 15.5691 57.417 16.1541L57.4547 16.9337V22.3856L57.4931 23.1661C57.57 24.4407 58.51 25.3832 59.7944 25.4633L60.5708 25.5018V16.9337L60.6093 16.1541C60.6412 15.5757 60.7271 15.0455 60.9962 14.5849C61.2705 14.1125 61.6642 13.7205 62.1379 13.4484C62.6116 13.1763 63.1485 13.0335 63.6947 13.0345C64.241 13.0355 64.7774 13.1802 65.2501 13.4541C65.7227 13.7279 66.115 14.1213 66.3876 14.5947C66.6526 15.0521 66.7353 15.5822 66.7672 16.1541L66.8056 16.9313V22.3856L66.8441 23.1661C66.9243 24.4472 67.8569 25.3897 69.1454 25.4633L69.9218 25.5018V16.1541C69.9218 14.5011 69.2654 12.9159 68.0968 11.7468C66.9282 10.5778 65.3432 9.92073 63.6903 9.92008C62.8056 9.91914 61.9309 10.107 61.1246 10.4711C60.3183 10.8353 59.599 11.3673 59.0148 12.0316C58.4303 11.3675 57.711 10.8357 56.9047 10.4714C56.0985 10.1072 55.224 9.91895 54.3393 9.91926C53.045 9.91926 51.8441 10.312 50.8492 10.9902C50.2422 10.3128 48.8841 9.91926 48.1045 9.91926V25.5018L48.8842 25.4633C50.1882 25.3774 51.1307 24.4603 51.1814 23.1661L51.2231 22.3856V16.9337L51.2616 16.1541C51.2943 15.5658 51.3761 15.0488 51.642 14.5882C51.9165 14.1161 52.31 13.7242 52.7833 13.4517C53.2567 13.1793 53.7932 13.0357 54.3393 13.0354C54.8858 13.0356 55.4228 13.1794 55.8962 13.4525C56.3696 13.7256 56.7629 14.1184 57.0366 14.5915ZM3.69348 25.4641L4.47313 25.5018H16.1598L16.1214 24.7246C16.0158 23.4434 15.1085 22.5075 13.8233 22.4241L13.0436 22.3856H6.03245L15.3802 13.0346L15.3417 12.2582C15.2812 10.964 14.3354 10.0289 13.0436 9.95771L12.264 9.92253L0.577301 9.91926L0.615752 10.6989C0.718016 11.9678 1.63839 12.9234 2.913 12.997L3.69348 13.0354H10.7047L1.35696 22.3864L1.39541 23.1661C1.47231 24.4505 2.39923 25.3807 3.69348 25.4633V25.4641ZM45.0456 12.2001C45.7692 12.9236 46.3432 13.7825 46.7349 14.7279C47.1265 15.6732 47.3281 16.6864 47.3281 17.7097C47.3281 18.7329 47.1265 19.7462 46.7349 20.6915C46.3432 21.6369 45.7692 22.4958 45.0456 23.2193C43.5836 24.68 41.6015 25.5006 39.5348 25.5006C37.4681 25.5006 35.486 24.68 34.024 23.2193C30.9815 20.1767 30.9815 15.2427 34.024 12.2001C34.747 11.4769 35.6053 10.9032 36.55 10.5117C37.4947 10.1202 38.5073 9.9186 39.5299 9.91844C40.5542 9.91773 41.5685 10.119 42.515 10.5106C43.4614 10.9023 44.3213 11.4767 45.0456 12.201V12.2001ZM42.8408 14.4066C43.7172 15.2836 44.2094 16.4727 44.2094 17.7126C44.2094 18.9524 43.7172 20.1415 42.8408 21.0185C41.9638 21.8949 40.7746 22.3872 39.5348 22.3872C38.295 22.3872 37.1059 21.8949 36.2288 21.0185C35.3525 20.1415 34.8602 18.9524 34.8602 17.7126C34.8602 16.4727 35.3525 15.2836 36.2288 14.4066C37.1059 13.5302 38.295 13.0379 39.5348 13.0379C40.7746 13.0379 41.9638 13.5302 42.8408 14.4066ZM23.1775 9.91844C24.2002 9.91871 25.2128 10.1204 26.1575 10.5121C27.1022 10.9037 27.9605 11.4776 28.6834 12.201C31.7268 15.2427 31.7268 20.1775 28.6834 23.2193C27.2215 24.68 25.2393 25.5006 23.1726 25.5006C21.106 25.5006 19.1238 24.68 17.6619 23.2193C14.6193 20.1767 14.6193 15.2427 17.6619 12.2001C18.3848 11.4769 19.2432 10.9032 20.1879 10.5117C21.1326 10.1202 22.1451 9.9186 23.1677 9.91844H23.1775ZM26.4786 14.4049C27.3552 15.282 27.8477 16.4713 27.8477 17.7113C27.8477 18.9514 27.3552 20.1407 26.4786 21.0177C25.6016 21.8941 24.4125 22.3864 23.1726 22.3864C21.9328 22.3864 20.7437 21.8941 19.8667 21.0177C18.9903 20.1407 18.498 18.9516 18.498 17.7117C18.498 16.4719 18.9903 15.2828 19.8667 14.4058C20.7437 13.5294 21.9328 13.0371 23.1726 13.0371C24.4125 13.0371 25.6016 13.5294 26.4786 14.4058V14.4049Z" fill="#5C5C5C"/>
</g>
<defs>
<clipPath id="clip0_25_314">
<rect width="69.4166" height="34" fill="white" transform="translate(0.577423)"/>
</clipPath>
</defs>
</svg>
