<svg width="64" height="44" viewBox="0 0 64 44" fill="none" xmlns="http://www.w3.org/2000/svg">
<path d="M57.0664 20.2421L50.5264 23.4033C50.4 23.4644 50.2621 23.4982 50.1217 23.5025L13.7804 24.6123C13.5623 24.619 13.348 24.5541 13.1701 24.4276L7.36932 20.2997C6.78164 19.8815 6.81651 18.9976 7.4353 18.627L31.2483 4.36539C31.5575 4.18021 31.9424 4.17574 32.2558 4.35366L57.1249 18.4722C57.8259 18.8701 57.7921 19.8914 57.0664 20.2421Z" fill="#9328FF"/>
<rect x="16.9447" y="21.7816" width="30.2779" height="17.4313" fill="#4A3AFF"/>
<path d="M49.084 37.1003V24.4266C49.084 22.1031 41.5281 20.2021 32.0833 20.2021C22.6385 20.2021 15.0826 22.1031 15.0826 24.4266V37.1003" stroke="#4A3AFF" stroke-width="4.5" stroke-miterlimit="10" stroke-linecap="round" stroke-linejoin="round"/>
<path d="M49.0844 25.0604L60.2961 20.9346C61.0895 20.6426 61.1851 19.559 60.4551 19.1326L34.101 3.74078C32.8547 3.01285 31.3128 3.01285 30.0664 3.74078L3.71237 19.1326C2.98233 19.559 3.07794 20.6426 3.87135 20.9346L15.0831 25.0604M3.44973 19.5166V31.9059M32.0837 32.5509C22.6956 32.5509 15.0831 34.4414 15.0831 36.7755C15.0831 39.1095 22.6956 41 32.0837 41C41.4719 41 49.0844 39.1095 49.0844 36.7755C49.0844 34.4414 41.4719 32.5509 32.0837 32.5509Z" stroke="#4A3AFF" stroke-width="4.5" stroke-miterlimit="10" stroke-linecap="round" stroke-linejoin="round"/>
<path fill-rule="evenodd" clip-rule="evenodd" d="M29.0391 1.824C30.9203 0.725335 33.2474 0.725333 35.1286 1.824L61.5998 17.2843C63.8993 18.6272 63.5876 22.0432 61.083 22.9478L51.8663 26.2768L50.3896 22.1885L57.1791 19.7362L32.9364 5.5775C32.4097 5.26987 31.7581 5.26987 31.2313 5.5775L6.96284 19.7513L13.7443 22.2388L12.2474 26.3197L5.62325 23.8899V34.0793H1.27647V21.2991C0.666127 19.9302 1.05495 18.1679 2.55644 17.291L29.0391 1.824Z" fill="#9328FF"/>
</svg>
