<svg width="80" height="34" viewBox="0 0 80 34" fill="none" xmlns="http://www.w3.org/2000/svg">
<g clip-path="url(#clip0_25_338)">
<path d="M11.6419 26.9618C10.4591 27.1696 9.25547 27.2318 8.01038 27.3977L4.21268 16.2747V27.8751C3.02987 27.9995 1.95079 28.1656 0.83017 28.3316V7.08156H3.98455L8.30086 19.1386V7.08156H11.6419V26.9618ZM18.1788 14.8635C19.4655 14.8635 21.4369 14.8013 22.6197 14.8013V18.1215C21.1463 18.1215 19.424 18.1215 18.1788 18.1838V23.1228C20.1296 22.9984 22.0802 22.8322 24.0516 22.7699V25.9655L14.8584 26.692V7.08156H24.0516V10.4019H18.1788V14.8635ZM36.399 10.402H32.9542V25.6754C31.8336 25.6754 30.7129 25.6754 29.634 25.7168V10.402H26.1892V7.08156H36.3991L36.399 10.402ZM41.7944 14.6353H46.3392V17.9556H41.7944V25.4886H38.5362V7.08156H47.8126V10.4019H41.7944V14.6353ZM53.208 22.5833C55.0965 22.6246 57.0056 22.7702 58.8526 22.8737V26.1526C55.8851 25.9657 52.9176 25.7792 49.8878 25.7168V7.08156H53.208V22.5833ZM61.6541 26.3809C62.7124 26.4432 63.833 26.5055 64.9121 26.6298V7.08156H61.6541V26.3809ZM79.4594 7.08156L75.2466 17.1878L79.4594 28.3316C78.2141 28.1656 76.969 27.9373 75.7239 27.7297L73.3375 21.5873L70.9097 27.2318C69.7059 27.0241 68.5438 26.9618 67.3404 26.7958L71.6153 17.0632L67.7553 7.08156H71.3245L73.5034 12.6639L75.8278 7.08156H79.4594V7.08156Z" fill="#5C5C5C"/>
</g>
<defs>
<clipPath id="clip0_25_338">
<rect width="78.625" height="34" fill="white" transform="translate(0.830414)"/>
</clipPath>
</defs>
</svg>
