<svg width="95" height="34" viewBox="0 0 95 34" fill="none" xmlns="http://www.w3.org/2000/svg">
<g clip-path="url(#clip0_25_323)">
<path d="M10.977 4.25H0.61058V29.0417L10.977 4.25Z" fill="#5C5C5C"/>
<path d="M18.2707 4.25H28.6236V29.0417L18.2707 4.25Z" fill="#5C5C5C"/>
<path d="M14.6236 13.3875L21.2216 29.0418H16.8927L14.9207 24.0578H10.0921L14.6236 13.3875Z" fill="#5C5C5C"/>
<path d="M45.5361 20.0147L46.7584 23.5197C46.799 23.6075 46.8597 23.648 46.9678 23.648H49.318C49.4463 23.648 49.4665 23.5872 49.4463 23.4589L44.5906 9.97238C44.5703 9.86432 44.5501 9.84406 44.442 9.84406H41.5246C41.4435 9.84406 41.3963 9.90484 41.3963 9.99264C41.3557 10.7017 41.295 10.9179 41.2072 11.1272L36.8782 23.4386C36.858 23.5872 36.9053 23.648 37.0268 23.648H39.1271C39.2554 23.648 39.3162 23.6075 39.3635 23.4791L40.5183 20.0147H45.5361ZM41.1869 17.7253C41.8217 15.8073 42.6591 13.3491 42.9968 11.9444H43.0171C43.4358 13.4166 44.4218 16.3341 44.8675 17.7253H41.1869Z" fill="#5C5C5C"/>
<path d="M55.6887 23.8567C56.9516 23.8567 58.2955 23.6271 59.6597 23.0395C59.7677 22.999 59.788 22.9517 59.788 22.8504C59.7475 22.4722 59.7002 21.9252 59.7002 21.5065V8.81016C59.7002 8.72912 59.7002 8.68859 59.5989 8.68859H57.3095C57.2217 8.68859 57.1812 8.72912 57.1812 8.83717V13.1391C56.8233 13.0986 56.5734 13.0783 56.2762 13.0783C52.5821 13.0783 50.313 15.5163 50.313 18.562C50.313 22.0941 52.6429 23.8567 55.6887 23.8567ZM57.1812 21.5065C56.803 21.6281 56.3843 21.6753 55.9588 21.6753C54.284 21.6753 52.913 20.7299 52.913 18.4337C52.913 16.401 54.3245 15.1989 56.1952 15.1989C56.5734 15.1989 56.9043 15.2394 57.1812 15.3474V21.5065Z" fill="#5C5C5C"/>
<path d="M67.0901 13.0794C63.9363 13.0794 61.9846 15.4971 61.9846 18.4821C61.9846 21.1497 63.5378 23.8578 67.0428 23.8578C70.0076 23.8578 72.0876 21.6764 72.0876 18.4145C72.0876 15.5376 70.325 13.0794 67.0901 13.0794ZM66.9618 15.1999C68.7447 15.1999 69.5011 16.733 69.5011 18.4821C69.5011 20.6432 68.3868 21.717 67.0901 21.717C65.4896 21.717 64.5441 20.373 64.5441 18.4348C64.5441 16.4426 65.5503 15.1999 66.9618 15.1999Z" fill="#5C5C5C"/>
<path d="M74.4555 8.68859C74.3677 8.68859 74.3069 8.72912 74.3069 8.83717V23.2084C74.3069 23.2692 74.3677 23.3772 74.4555 23.3975C75.4617 23.7081 76.5153 23.8567 77.6026 23.8567C80.7159 23.8567 83.7414 21.9252 83.7414 18.0353C83.7414 15.2191 81.8099 13.0783 78.7844 13.0783C78.0888 13.0783 77.4405 13.1863 76.8732 13.3754L76.8462 8.85743C76.8462 8.70886 76.8057 8.68859 76.6571 8.68859H74.4555ZM81.1548 18.2919C81.1548 20.6218 79.561 21.7159 77.8389 21.7159C77.481 21.7159 77.1636 21.6956 76.8732 21.6078V15.4757C77.2041 15.3474 77.6026 15.2394 78.3387 15.2394C80 15.2394 81.1548 16.2929 81.1548 18.2919Z" fill="#5C5C5C"/>
<path d="M92.2855 19.0494C93.312 19.0494 94.1562 19.0291 94.4466 18.9616C94.5546 18.9413 94.5951 18.9008 94.6154 18.813C94.6762 18.5834 94.7032 18.1039 94.7032 17.5163C94.7032 15.5173 93.5011 13.0794 90.3945 13.0794C87.2205 13.0794 85.4578 15.6659 85.4578 18.5834C85.4578 21.1699 86.822 23.8578 90.6444 23.8578C92.0761 23.8578 93.0013 23.6282 93.7982 23.25C93.8793 23.2094 93.9198 23.1419 93.9198 23.0204V21.2712C93.9198 21.1699 93.859 21.1497 93.7982 21.1902C93.0013 21.5279 92.1369 21.6967 91.1914 21.6967C89.0506 21.6967 88.0781 20.5149 88.0174 19.0494H92.2855ZM88.0173 17.2395C88.1862 16.2129 88.8345 15.0986 90.2865 15.0986C91.887 15.0986 92.3057 16.4426 92.3057 17.0504C92.3057 17.0706 92.3057 17.1584 92.3057 17.2192C92.218 17.2395 91.9478 17.2395 91.1509 17.2395H88.0173Z" fill="#5C5C5C"/>
</g>
<defs>
<clipPath id="clip0_25_323">
<rect width="94.2083" height="34" fill="white" transform="translate(0.610153)"/>
</clipPath>
</defs>
</svg>
