<svg width="78" height="34" viewBox="0 0 78 34" fill="none" xmlns="http://www.w3.org/2000/svg">
<g clip-path="url(#clip0_25_318)">
<path fill-rule="evenodd" clip-rule="evenodd" d="M48.1607 26.7792C43.6532 30.1016 37.1198 31.8742 31.4947 31.8742C23.6074 31.8742 16.5067 28.957 11.1349 24.1051C10.7128 23.7235 11.091 23.2036 11.5974 23.5007C17.3947 26.8737 24.5629 28.903 31.9674 28.903C36.9611 28.903 42.4546 27.8698 47.5057 25.7258C48.2688 25.4016 48.9069 26.2255 48.1607 26.7792Z" fill="#5C5C5C"/>
<path fill-rule="evenodd" clip-rule="evenodd" d="M50.0347 24.6352C49.4607 23.8991 46.2261 24.2874 44.7742 24.4596C44.3319 24.5136 44.2644 24.1287 44.6628 23.8519C47.239 22.0387 51.4663 22.5621 51.9592 23.1698C52.4522 23.781 51.8309 28.0184 49.41 30.0409C49.0386 30.3515 48.6841 30.186 48.8496 29.7741C49.3932 28.4168 50.612 25.3746 50.0347 24.6352Z" fill="#5C5C5C"/>
<path fill-rule="evenodd" clip-rule="evenodd" d="M44.8766 11.0526V9.29008C44.8766 9.02335 45.0792 8.8444 45.3223 8.8444H53.213C53.4663 8.8444 53.6688 9.02672 53.6688 9.29008V10.7993C53.6655 11.0526 53.4527 11.3835 53.0746 11.9068L48.9857 17.7446C50.5051 17.7075 52.1089 17.9337 53.4865 18.7103C53.7971 18.8859 53.8815 19.1425 53.9052 19.3957V21.2764C53.9052 21.533 53.6216 21.8335 53.3244 21.6782C50.8968 20.4053 47.6723 20.2668 44.988 21.6917C44.7146 21.8403 44.4276 21.5431 44.4276 21.2865V19.5004C44.4276 19.2134 44.4309 18.7238 44.7179 18.2883L49.4551 11.4949H45.3324C45.0792 11.4949 44.8766 11.3159 44.8766 11.0526Z" fill="#5C5C5C"/>
<path fill-rule="evenodd" clip-rule="evenodd" d="M16.0926 22.0496H13.692C13.4624 22.0327 13.28 21.8605 13.2632 21.6411V9.3205C13.2632 9.07402 13.4691 8.87818 13.7257 8.87818H15.9643C16.1973 8.88831 16.383 9.06726 16.3999 9.29011V10.9007H16.4437C17.0279 9.34413 18.1252 8.6182 19.6041 8.6182C21.1066 8.6182 22.0452 9.34413 22.7205 10.9007C23.3013 9.34413 24.6214 8.6182 26.0362 8.6182C27.0423 8.6182 28.1431 9.0335 28.815 9.96539C29.5747 11.002 29.4193 12.5078 29.4193 13.828L29.416 21.6039C29.416 21.8504 29.21 22.0496 28.9534 22.0496H26.5561C26.3164 22.0327 26.124 21.8403 26.124 21.6039V15.0739C26.124 14.554 26.1712 13.2574 26.0564 12.7644C25.8775 11.9372 25.3406 11.7042 24.6451 11.7042C24.0643 11.7042 23.4566 12.0925 23.2101 12.7138C22.9636 13.3351 22.9873 14.375 22.9873 15.0739V21.6039C22.9873 21.8504 22.7813 22.0496 22.5247 22.0496H20.1274C19.8843 22.0327 19.6952 21.8403 19.6952 21.6039L19.6919 15.0739C19.6919 13.6997 19.9181 11.6772 18.213 11.6772C16.4876 11.6772 16.5552 13.6491 16.5552 15.0739V21.6039C16.5552 21.8504 16.3492 22.0496 16.0926 22.0496Z" fill="#5C5C5C"/>
<path fill-rule="evenodd" clip-rule="evenodd" d="M60.4621 8.6182C64.0242 8.6182 65.9522 11.6772 65.9522 15.5669C65.9522 19.3248 63.8216 22.3062 60.4621 22.3062C56.9641 22.3062 55.0598 19.2472 55.0598 15.4352C55.0598 11.5996 56.9878 8.6182 60.4621 8.6182ZM60.4824 11.1336C58.7131 11.1336 58.6017 13.5444 58.6017 15.0469C58.6017 16.5528 58.5781 19.7671 60.4621 19.7671C62.3225 19.7671 62.4103 17.1741 62.4103 15.5939C62.4103 14.554 62.3664 13.3114 62.0524 12.3255C61.7823 11.4679 61.2454 11.1336 60.4824 11.1336Z" fill="#5C5C5C"/>
<path fill-rule="evenodd" clip-rule="evenodd" d="M70.5712 22.0496H68.1807C67.941 22.0327 67.7485 21.8403 67.7485 21.6039L67.7451 9.27998C67.7654 9.05376 67.9646 8.87818 68.2077 8.87818H70.4328C70.6421 8.88831 70.8143 9.03012 70.8616 9.22258V11.1066H70.9055C71.5774 9.42179 72.5194 8.6182 74.1772 8.6182C75.2543 8.6182 76.3044 9.00649 76.9797 10.0701C77.6077 11.056 77.6077 12.7138 77.6077 13.9057V21.6613C77.5807 21.8774 77.3814 22.0496 77.1451 22.0496H74.7377C74.5182 22.0327 74.3359 21.8707 74.3123 21.6613V14.9693C74.3123 13.6221 74.4676 11.6502 72.8098 11.6502C72.2257 11.6502 71.6888 12.0419 71.4221 12.6361C71.0844 13.3891 71.0405 14.1387 71.0405 14.9693V21.6039C71.0372 21.8504 70.8278 22.0496 70.5712 22.0496Z" fill="#5C5C5C"/>
<path fill-rule="evenodd" clip-rule="evenodd" d="M38.5864 16.1645C38.5864 17.0998 38.61 17.8797 38.1373 18.7103C37.7558 19.3856 37.148 19.8009 36.4761 19.8009C35.5543 19.8009 35.0141 19.0986 35.0141 18.062C35.0141 16.0159 36.8475 15.6445 38.5864 15.6445V16.1645ZM41.0073 22.0158C40.8486 22.1576 40.619 22.1678 40.44 22.0732C39.6432 21.4114 39.498 21.1042 39.0624 20.4728C37.7456 21.8166 36.8104 22.2184 35.1053 22.2184C33.0828 22.2184 31.5128 20.9725 31.5128 18.4773C31.5128 16.5291 32.5662 15.2022 34.0721 14.5539C35.3754 13.9799 37.1953 13.8786 38.5864 13.72V13.4093C38.5864 12.8387 38.6303 12.1634 38.2926 11.6705C38.0022 11.2282 37.4418 11.0458 36.9454 11.0458C36.0304 11.0458 35.2167 11.5151 35.0175 12.4876C34.977 12.7036 34.8183 12.9164 34.5988 12.9265L32.2725 12.6766C32.0766 12.6327 31.8572 12.4741 31.9146 12.1736C32.448 9.35086 35.0006 8.5 37.2831 8.5C38.4513 8.5 39.9775 8.81063 40.8992 9.69525C42.0675 10.7858 41.956 12.2411 41.956 13.8246V17.5657C41.956 18.6901 42.422 19.183 42.8609 19.7908C43.0129 20.0069 43.0466 20.2668 42.8508 20.4289C42.3612 20.8375 41.4901 21.5972 41.0106 22.0226L41.0073 22.0158Z" fill="#5C5C5C"/>
<path fill-rule="evenodd" clip-rule="evenodd" d="M7.11465 16.1645C7.11465 17.0997 7.13828 17.8797 6.66559 18.7103C6.28405 19.3856 5.67967 19.8009 5.00438 19.8009C4.08262 19.8009 3.54577 19.0986 3.54577 18.062C3.54577 16.0159 5.37917 15.6445 7.11465 15.6445V16.1645ZM9.53554 22.0158C9.37685 22.1576 9.14725 22.1678 8.9683 22.0732C8.17147 21.4114 8.02966 21.1042 7.59072 20.4728C6.27392 21.8166 5.34203 22.2184 3.63356 22.2184C1.61446 22.2184 0.0410461 20.9725 0.0410461 18.4773C0.0410461 16.5291 1.09787 15.2022 2.60037 14.5539C3.90367 13.9799 5.72356 13.8786 7.11465 13.72V13.4093C7.11465 12.8387 7.15854 12.1634 6.82428 11.6705C6.53053 11.2281 5.97004 11.0458 5.47708 11.0458C4.56208 11.0458 3.74498 11.5151 3.54577 12.4876C3.50525 12.7036 3.34656 12.9164 3.13047 12.9265L0.800741 12.6766C0.604908 12.6327 0.388817 12.474 0.44284 12.1735C0.979691 9.35086 3.52889 8.5 5.81135 8.5C6.97959 8.5 8.50573 8.81063 9.4275 9.69525C10.5957 10.7858 10.4843 12.2411 10.4843 13.8246V17.5657C10.4843 18.69 10.9503 19.183 11.3892 19.7908C11.5445 20.0068 11.5783 20.2668 11.3824 20.4289C10.8929 20.8374 10.0217 21.5971 9.54229 22.0226L9.53554 22.0158Z" fill="#5C5C5C"/>
</g>
<defs>
<clipPath id="clip0_25_318">
<rect width="77.9166" height="34" fill="white" transform="translate(0.0417099)"/>
</clipPath>
</defs>
</svg>
